<svg xmlns="http://www.w3.org/2000/svg" viewBox="0 0 120 120" fill="none">
  <defs>
    <linearGradient id="lumiere_grad" x1="10" y1="10" x2="110" y2="110" gradientUnits="userSpaceOnUse">
      <stop offset="0%" stop-color="#00F2FE"/>
      <stop offset="60%" stop-color="#7B2CBF"/>
      <stop offset="100%" stop-color="#21163D"/>
    </linearGradient>
    <linearGradient id="glow_grad" x1="30" y1="20" x2="90" y2="100" gradientUnits="userSpaceOnUse">
      <stop offset="0%" stop-color="#00F2FE" stop-opacity="0.8"/>
      <stop offset="100%" stop-color="#FFF0F5" stop-opacity="0.2"/>
    </linearGradient>
    <filter id="subtle_glow" x="-20%" y="-20%" width="140%" height="140%">
      <feGaussianBlur stdDeviation="4" result="blur"/>
      <feComposite in="SourceGraphic" in2="blur" operator="over"/>
    </filter>
  </defs>
  <rect width="120" height="120" rx="28" fill="#1A1030"/>
  <rect width="118" height="118" x="1" y="1" rx="27" stroke="#342451" stroke-width="1.5"/>
  <circle cx="60" cy="60" r="38" stroke="url(#glow_grad)" stroke-width="1.5" stroke-dasharray="4 3" opacity="0.4"/>
  <path d="M60 26C60 26 38 52 38 68C38 80.15 47.85 90 60 90C72.15 90 82 80.15 82 68C82 52 60 26 60 26Z" fill="url(#lumiere_grad)" filter="url(#subtle_glow)" opacity="0.9"/>
  <path d="M60 48L63.5 58.5L74 62L63.5 65.5L60 76L56.5 65.5L46 62L56.5 58.5L60 48Z" fill="#FFFFFF"/>
  <circle cx="60" cy="62" r="2" fill="#00F2FE"/>
</svg>